<svg xmlns="http://www.w3.org/2000/svg">

<symbol id="slider-arrow">
<path d="M14 2V4H3V6L0 3L3 0V2H14Z"/>
</symbol>

<symbol id="pag-end">
<path d="M10.0055 6.08789L0.972265 10.7852V9.44727L8.48203 5.53125L0.972265 1.625V0.287109L10.0055 4.98438V6.08789ZM24.0766 6.08789L15.0434 10.7852V9.44727L22.5531 5.53125L15.0434 1.625V0.287109L24.0766 4.98438V6.08789Z"/>
</symbol>

<symbol id="pag-start">
<path d="M10.0055 6.08789L0.972265 10.7852V9.44727L8.48203 5.53125L0.972265 1.625V0.287109L10.0055 4.98438V6.08789ZM24.0766 6.08789L15.0434 10.7852V9.44727L22.5531 5.53125L15.0434 1.625V0.287109L24.0766 4.98438V6.08789Z"/>
</symbol>

<symbol id="pag-next">
<path d="M9.04102 6.08789L0.0078125 10.7852V9.44727L7.51758 5.53125L0.0078125 1.625V0.287109L9.04102 4.98438V6.08789Z"/>
</symbol>

<symbol id="pag-prev">
<path d="M9.04102 6.08789L0.0078125 10.7852V9.44727L7.51758 5.53125L0.0078125 1.625V0.287109L9.04102 4.98438V6.08789Z"/>
</symbol>

</svg>